<svg width="144" height="144" viewBox="0 0 144 144" fill="none" xmlns="http://www.w3.org/2000/svg">
<path d="M79.0082 101.631C79.0082 101.408 79.0069 101.187 79.0082 100.964C79.0189 100.037 79.2148 99.804 80.0895 99.436C81.6415 98.7814 83.2162 98.164 84.7148 97.4C86.8962 96.288 88.8722 94.8467 90.7189 93.24C95.6855 88.9187 98.6349 83.44 99.8429 77.02C100.72 72.3587 100.399 67.7347 98.9762 63.2094C96.7029 55.9814 92.0895 50.6174 85.5722 46.9107C83.6828 45.836 81.5255 45.228 79.4722 44.456C78.7868 44.1987 78.4602 43.7987 78.4789 43.08C78.4935 42.5027 78.4602 41.924 78.4882 41.3467C78.5295 40.5027 78.8709 40.3147 79.6735 40.6107C80.5442 40.9307 81.4109 41.388 82.3109 41.4774C83.4802 41.5947 84.7255 41.5947 85.8589 41.32C90.2055 40.2654 95.8655 43.6387 96.1655 48.816C96.3495 52.0054 98.0415 54.4 101.119 55.64C105.836 57.54 107.91 63.3867 105.191 67.7494C103.356 70.6934 103.623 73.4774 105.36 76.1174C107.791 79.8107 106.275 86.3507 101.442 88.2974C99.0589 89.2574 97.2362 90.8627 96.5722 93.4814C96.3988 94.1667 96.3162 94.876 96.1962 95.576C95.5775 99.2094 93.1855 101.225 89.9135 102.396C88.4228 102.929 86.8829 102.788 85.3842 102.387C83.8429 101.973 82.3975 102.251 80.9655 102.817C80.5535 102.98 80.1402 103.14 79.7189 103.275C79.2735 103.416 79.0295 103.219 79.0095 102.764C78.9935 102.387 79.0055 102.009 79.0069 101.631H79.0082ZM92.5495 47.348C92.5402 47.164 92.5628 47.0774 92.5295 47.0454C91.5615 46.0947 90.6015 45.1347 89.6015 44.216C89.4495 44.0774 89.1122 44.152 88.8669 44.0987C88.7709 44.0774 88.6975 43.9667 88.6042 43.9147C88.3375 43.7667 88.0789 43.5787 87.7909 43.5014C87.4855 43.4187 87.1522 43.4467 86.8308 43.4254C87.0988 43.6654 87.3282 44.008 87.6429 44.1294C89.2682 44.7507 90.8388 45.4294 91.9308 46.88C92.0628 47.0547 92.2922 47.156 92.5495 47.3467V47.348ZM100.879 85.0427C101.14 84.8414 101.362 84.7534 101.44 84.5947C101.714 84.0427 101.944 83.468 102.18 82.8974C102.475 82.188 102.751 81.4707 103.048 80.7627C103.314 80.1307 103.408 79.5147 103.026 78.9174C102.327 80.9094 101.635 82.8854 100.879 85.0427ZM101.072 59.204C101.767 60.9174 102.476 62.668 103.195 64.4427C103.487 62.5987 102.258 59.6534 101.072 59.204ZM92.7775 97.1134C91.6535 98.064 90.5815 98.9694 89.4215 99.952C90.9708 99.628 92.8335 98.0507 92.7775 97.1134Z" fill="white"/>
<path d="M54.4053 41.064C55.168 41.1934 55.944 41.2667 56.688 41.464C58.4747 41.9387 60.164 41.6294 61.8187 40.9414C63.2573 40.344 63.452 40.468 63.4507 42.0334C63.4507 42.58 63.5267 43.1467 63.404 43.6667C63.3347 43.964 62.98 44.32 62.68 44.416C58.1507 45.864 54.2427 48.3627 50.8053 51.5774C47.2693 54.884 44.8547 58.932 43.4067 63.5574C41.6813 69.0707 41.5747 74.644 43.2107 80.1454C44.7573 85.3454 47.5853 89.848 51.764 93.3867C54.7307 95.9 57.988 97.9374 61.76 99.0827C64.004 99.764 63.9867 99.8227 63.988 102.164C63.988 103.819 63.8867 103.889 62.464 103.145C60.6293 102.187 58.6787 102.209 56.744 102.611C54.34 103.109 52.2173 102.627 50.16 101.328C48.3613 100.193 47.1773 98.6614 46.5733 96.6627C46.4093 96.1187 46.4173 95.5254 46.3267 94.9574C46.0293 93.1134 45.528 91.3134 44.0787 90.048C43.1773 89.2614 42.0893 88.652 41.0067 88.1227C39.6627 87.4654 38.6627 86.5107 37.6547 85.416C36.0707 83.6947 36.1787 81.6534 36.08 79.62C36.056 79.1174 36.276 78.572 36.4867 78.0934C36.9053 77.144 37.3867 76.2227 37.86 75.2987C38.6747 73.712 38.7493 72.0334 38.2587 70.38C37.9093 69.2054 37.3307 68.0907 36.7787 66.988C35.352 64.14 35.8453 61.468 37.4387 58.88C38.36 57.3814 39.808 56.5907 41.3387 55.828C43.6973 54.6534 45.5347 52.9534 46.0347 50.1894C46.192 49.3214 46.2947 48.4414 46.4813 47.58C47.048 44.9614 48.7293 43.2894 51.104 42.2187C51.3053 42.128 51.4933 42.0067 51.68 41.8894C52.508 41.3667 53.3907 41.0427 54.404 41.0614L54.4053 41.064ZM38.4947 78.14L38.1493 78.084C38.0147 78.688 37.7467 79.2987 37.7693 79.8974C37.8347 81.6174 37.872 83.3827 39.304 84.672C39.456 84.8094 39.6667 84.88 39.8493 84.9827C39.828 84.7747 39.868 84.5334 39.776 84.3627C39.444 83.7494 38.9547 83.1987 38.732 82.552C38.3493 81.4454 38.1107 80.2934 38.4827 79.1027C38.5747 78.8094 38.496 78.4614 38.496 78.1387L38.4947 78.14ZM41.4133 59.5054C39.94 60.6574 38.9293 64.228 39.5187 65.564C40.116 63.652 40.7507 61.624 41.4133 59.5054ZM49.568 96.1054C49.552 96.34 49.5107 96.448 49.5467 96.4934C49.9187 96.9574 50.2933 97.4214 50.688 97.8667C51.8373 99.1667 53.3613 99.884 54.9227 100.531C55.068 100.591 55.296 100.452 55.4853 100.404C55.352 100.239 55.2507 99.9907 55.08 99.924C54.6573 99.76 54.1707 99.7467 53.7667 99.5547C52.1387 98.78 50.888 97.5227 49.568 96.1054ZM53.2413 43.952C53.2173 43.908 53.1947 43.864 53.1707 43.82C52.9667 43.8734 52.732 43.8787 52.5653 43.988C51.9053 44.42 51.2653 44.88 50.6227 45.3374C49.636 46.0387 49.0947 47.0374 48.792 48.1747C48.7493 48.3347 48.884 48.5414 48.936 48.7267C49.0627 48.596 49.2707 48.4827 49.3027 48.3307C49.648 46.7134 50.728 45.6814 52.032 44.8147C52.444 44.54 52.8387 44.2387 53.2413 43.9507V43.952Z" fill="white"/>
<path d="M104.219 35.6174C104.57 36.2414 104.92 36.712 105.116 37.2414C105.926 39.4294 103.672 43.304 100.324 42.7294C98.5444 42.424 97.1617 41.4854 95.7364 40.5787C93.5497 39.1867 91.4164 37.712 89.2751 36.2507C88.3217 35.5987 88.3137 35.5574 88.9324 34.5974C91.3964 30.78 93.8697 26.968 96.3577 23.1654C97.0564 22.0974 97.3551 22.0587 98.4004 22.7534C100.966 24.456 103.542 26.144 106.082 27.884C106.971 28.4934 107.666 29.32 107.956 30.3974C108.472 32.312 107.174 34.6054 105.212 35.2827C104.89 35.3947 104.564 35.5014 104.219 35.6174Z" fill="white"/>
<path d="M66.6972 121.775C67.5266 123.395 68.3226 124.951 69.1199 126.507C69.3732 127.001 69.6346 127.491 69.8826 127.988C70.2119 128.649 70.0972 128.897 69.3839 128.805C68.0212 128.631 66.6666 128.384 65.3186 128.121C62.6426 127.601 59.9706 127.053 57.2986 126.509C56.4079 126.328 55.5292 126.079 54.6332 125.941C53.9812 125.841 53.8906 125.485 53.9986 124.959C54.3506 123.243 54.7172 121.531 55.0612 119.812C55.6346 116.944 56.2052 114.075 56.7559 111.201C56.9479 110.199 57.1439 110.024 58.1372 110.228C61.0252 110.819 63.9186 111.389 66.7946 112.031C68.7732 112.472 70.3479 113.492 70.8719 115.593C71.5692 118.385 69.9279 120.968 67.1239 121.607C67.0199 121.631 66.9226 121.684 66.6986 121.772L66.6972 121.775Z" fill="white"/>
<path d="M76.507 32.4467C71.6683 32.5053 66.831 32.564 61.9923 32.6213C61.7697 32.624 61.547 32.628 61.3257 32.6133C60.8097 32.5773 60.5643 32.3293 60.6523 31.7827C61.0643 29.2453 61.471 26.7067 61.871 24.1667C62.2603 21.6933 62.635 19.2187 63.027 16.7453C63.059 16.5467 63.1843 16.364 63.267 16.1733C63.4483 16.304 63.6697 16.4027 63.807 16.5707C65.755 18.9573 67.691 21.356 69.6323 23.748C69.911 24.092 70.211 24.42 70.4963 24.7587C70.8137 25.1347 71.1203 25.132 71.427 24.748C72.2283 23.744 73.0323 22.7427 73.8297 21.736C75.179 20.0333 76.5217 18.3253 77.8763 16.628C77.9563 16.5267 78.1563 16.428 78.2563 16.4613C78.3617 16.496 78.463 16.684 78.4843 16.8173C78.8937 19.488 79.2883 22.1613 79.691 24.8347C80.0177 27.004 80.3443 29.1733 80.6843 31.3413C80.8057 32.1147 80.6817 32.3307 79.903 32.3507C78.771 32.38 77.6377 32.3587 76.5057 32.3587C76.5057 32.388 76.5057 32.4187 76.5057 32.448L76.507 32.4467Z" fill="white"/>
<path d="M37.4318 50.4041C37.4385 51.9227 37.1051 53.3481 36.2838 54.6467C35.1491 56.4427 34.2558 58.4027 32.6745 59.8947C31.9625 60.5667 31.7771 60.5867 31.1051 59.8641C30.0305 58.7107 28.9531 57.5601 27.9065 56.3814C27.4971 55.9214 27.1838 55.8267 26.6305 56.2227C24.8825 57.4774 22.9971 57.5094 21.1905 56.4241C19.2825 55.2787 18.5251 53.4681 18.6771 51.2681C18.7665 49.9921 19.2651 48.8507 19.9438 47.8001C20.9878 46.1814 22.0571 44.5761 23.1771 43.0107C23.6505 42.3507 24.0225 42.4307 24.5785 43.0187C25.6611 44.1641 26.7825 45.2734 27.8731 46.4121C28.3158 46.8747 28.6211 46.5841 28.9265 46.2667C29.7091 45.4521 30.6051 44.9254 31.7825 44.8987C34.9531 44.8281 37.4345 47.2294 37.4305 50.4014L37.4318 50.4041Z" fill="white"/>
<path d="M124.704 88.8134C124.388 89.5547 124.085 90.3027 123.752 91.0361C121.886 95.1347 120.016 99.232 118.141 103.327C117.772 104.133 117.386 104.933 116.992 105.729C116.898 105.917 116.741 106.072 116.612 106.243C116.433 106.1 116.202 105.991 116.082 105.808C114.29 103.085 112.512 100.353 110.733 97.6214C110.262 96.8987 109.81 96.1614 109.33 95.4454C108.88 94.7721 108.705 94.748 108.052 95.2054C106.67 96.172 105.293 97.1454 103.908 98.108C103.725 98.2347 103.512 98.3174 103.313 98.4214C103.262 98.3774 103.212 98.3347 103.161 98.2907C103.6 97.236 104.002 96.1654 104.485 95.132C106.168 91.536 107.88 87.952 109.581 84.364C109.97 83.5414 110.346 82.712 110.757 81.9C110.878 81.6614 111.102 81.476 111.28 81.2654C111.457 81.448 111.672 81.6067 111.808 81.816C114.049 85.2547 116.276 88.7027 118.518 92.1414C119.085 93.0107 119.182 93.0107 119.989 92.3387C121.352 91.2027 122.709 90.0614 124.072 88.9281C124.198 88.8227 124.353 88.752 124.494 88.6654C124.564 88.716 124.634 88.7667 124.704 88.816V88.8134Z" fill="white"/>
<path d="M36.9066 94.9173C36.996 98.7693 33.936 102.16 30.276 102.799C26.62 103.436 23.496 101.804 21.64 98.2653C20.8866 96.8307 20.1706 95.376 19.4506 93.9253C19.0266 93.0693 19.052 92.9827 19.904 92.5547C23.1706 90.9133 26.4453 89.2853 29.7133 87.6467C30.6253 87.1893 31.5186 86.6907 32.436 86.244C33.188 85.8787 33.3693 85.952 33.7373 86.6867C34.5826 88.3734 35.4866 90.0347 36.2346 91.764C36.656 92.74 36.8146 93.8307 37.0906 94.8693C37.0293 94.8853 36.968 94.9027 36.9066 94.9187V94.9173Z" fill="white"/>
<path d="M42.0895 99.3147C42.3308 99.4934 42.5255 99.604 42.6788 99.756C44.2442 101.299 45.7988 102.851 47.3628 104.393C48.3108 105.328 49.2775 106.245 50.2215 107.184C50.7895 107.749 50.7895 108.027 50.2268 108.576C49.4015 109.383 48.5575 110.169 47.7242 110.968C47.3642 111.313 47.0322 111.296 46.6882 110.937C46.3028 110.537 45.9042 110.152 45.5068 109.764C45.2362 109.5 44.9615 109.391 44.6522 109.728C44.3508 110.057 44.5362 110.297 44.7815 110.517C45.0775 110.784 45.3975 111.024 45.6935 111.291C46.3002 111.836 46.3282 112.315 45.7602 112.883C45.2908 113.352 44.7882 113.789 44.2975 114.239C44.0042 114.508 43.7348 114.521 43.4362 114.213C42.9562 113.721 42.4708 113.225 41.9362 112.797C41.7455 112.645 41.4028 112.683 41.1295 112.635C41.1868 112.899 41.1628 113.233 41.3175 113.416C41.7922 113.972 42.3322 114.472 42.8522 114.988C43.2188 115.352 43.2482 115.687 42.8562 116.069C41.9828 116.923 41.1322 117.8 40.2668 118.663C39.7135 119.215 39.5535 119.219 39.0068 118.677C36.7508 116.443 34.4948 114.207 32.2468 111.963C30.8722 110.591 30.8668 110.569 32.2548 109.155C34.2615 107.111 36.2948 105.091 38.3082 103.053C39.3375 102.012 40.3468 100.949 41.3748 99.9054C41.5842 99.692 41.8362 99.5214 42.0868 99.316L42.0895 99.3147Z" fill="white"/>
<path d="M87.8216 91.3014C86.915 91.0454 85.9123 90.4507 85.0563 89.6227C84.0203 88.62 83.3376 87.3734 83.127 85.972C82.9016 84.4787 82.103 83.4427 81.055 82.456C78.4683 80.0214 75.9336 77.532 73.3763 75.068C72.8963 74.6054 72.4123 74.1494 71.9243 73.6974C71.239 73.064 71.0016 73.04 70.2963 73.716C69.143 74.82 68.031 75.968 66.899 77.0947C65.5763 78.4107 64.2523 79.7254 62.9243 81.0374C62.767 81.192 62.6056 81.4107 62.4163 81.4494C62.1283 81.508 61.8136 81.4347 61.511 81.4187C61.5576 81.136 61.5216 80.796 61.6683 80.5827C61.9296 80.204 62.3016 79.9027 62.6283 79.5694C64.8496 77.3 67.0723 75.032 69.2936 72.7627C70.0203 72.02 70.0256 71.8014 69.2803 71.068C67.271 69.092 65.2483 67.128 63.2403 65.1507C62.007 63.936 60.7816 62.712 59.5656 61.48C59.2136 61.1227 58.883 60.9094 58.3323 61.0814C58.1456 61.14 57.7616 60.8934 57.615 60.684C57.315 60.2587 57.027 60.1307 56.5576 60.3974C55.9523 60.7427 55.6896 60.244 55.475 59.8547C54.8216 58.6694 54.2136 57.46 53.5896 56.26C53.283 55.6694 52.9643 55.084 52.6883 54.48C52.6083 54.3054 52.5763 53.948 52.663 53.892C52.8363 53.78 53.1363 53.74 53.331 53.812C53.7016 53.948 54.0283 54.196 54.3856 54.3747C55.755 55.0614 57.1296 55.736 58.499 56.42C58.7563 56.548 59.0456 56.6574 59.2363 56.856C59.3616 56.9854 59.447 57.3587 59.363 57.4534C58.8896 57.9787 59.1843 58.3134 59.6123 58.58C60.1083 58.8867 60.2963 59.216 59.987 59.7774C59.923 59.8934 60.0536 60.2014 60.1843 60.3294C63.5776 63.656 66.9816 66.972 70.391 70.2827C70.9683 70.844 71.219 70.8414 71.7923 70.2654C74.631 67.4187 77.4576 64.5614 80.2896 61.7067C80.679 61.3147 81.0576 60.9107 81.4576 60.5294C81.8536 60.1507 82.195 59.792 82.0283 59.148C81.983 58.9707 82.247 58.636 82.4523 58.4867C82.9523 58.124 83.259 57.8107 82.7003 57.2267C82.3923 56.9054 82.6123 56.6014 82.9496 56.4254C84.8363 55.436 86.7216 54.4427 88.623 53.484C88.8363 53.376 89.1536 53.4734 89.423 53.476C89.411 53.7267 89.4763 54.016 89.3736 54.22C88.411 56.1214 87.423 58.0094 86.435 59.8974C86.235 60.2787 85.959 60.412 85.5816 60.0854C85.1416 59.7054 84.815 59.864 84.5763 60.3267C84.2976 60.8667 83.979 61.1974 83.327 60.772C83.219 60.7014 82.851 60.892 82.6936 61.052C80.7123 63.056 78.7536 65.0827 76.7776 67.0934C75.5336 68.3587 74.279 69.6134 73.0163 70.8614C72.151 71.716 72.1176 71.9054 72.9576 72.7374C74.8336 74.596 76.7416 76.424 78.615 78.2854C79.559 79.2227 80.507 80.164 81.3643 81.1787C82.591 82.628 84.1563 83.34 85.975 83.728C88.3923 84.244 89.995 85.78 90.8576 88.0774C91.1403 88.8307 90.9323 89.0947 90.1403 89.1734C89.0776 89.2787 88.8243 89.532 88.727 90.6307C88.691 91.0427 88.635 91.404 87.8256 91.3054L87.8216 91.3014Z" fill="white"/>
<path d="M109.223 113.661C109.053 113.861 108.925 114.069 108.746 114.213C106.898 115.701 105.042 117.179 103.19 118.661C102.823 118.955 102.526 118.919 102.23 118.54C100.113 115.832 97.9832 113.133 95.8632 110.428C95.0152 109.345 94.1872 108.247 93.3312 107.172C92.9619 106.709 92.9072 106.328 93.4139 105.928C95.2045 104.512 96.9779 103.075 98.7752 101.667C99.4019 101.176 99.6059 101.245 100.083 101.853C102.477 104.908 104.878 107.956 107.278 111.005C107.813 111.685 108.355 112.357 108.882 113.043C109.013 113.212 109.094 113.42 109.225 113.66L109.223 113.661Z" fill="white"/>
<path d="M79.3664 128.007C79.3144 127.781 79.1944 127.56 79.2317 127.369C79.561 125.695 79.929 124.028 80.2637 122.355C80.9677 118.836 81.6517 115.313 82.369 111.797C82.429 111.507 82.6184 111.173 82.853 111.015C82.9717 110.935 83.3837 111.141 83.5637 111.32C86.573 114.3 89.5664 117.297 92.5624 120.289C93.253 120.98 93.9504 121.664 94.637 122.359C95.1544 122.883 95.1197 123.02 94.4384 123.235C89.5757 124.775 84.713 126.315 79.8517 127.855C79.7464 127.888 79.6397 127.92 79.3664 128.005V128.007Z" fill="white"/>
<path d="M38.9867 27.1147C39.4427 27.2827 39.6947 27.3521 39.9253 27.4641C43.6187 29.2574 47.308 31.0587 51 32.8547C51.9987 33.3401 53.0053 33.8081 54 34.3001C54.6 34.5961 54.636 34.8561 54.0947 35.2561C52.4533 36.4694 50.7933 37.6561 49.144 38.8587C46.7427 40.6107 44.3467 42.3694 41.944 44.1214C41.2733 44.6107 41.1173 44.5401 41.012 43.7107C40.444 39.2227 39.8747 34.7361 39.3147 30.2481C39.192 29.2681 39.1067 28.2841 38.9854 27.1161L38.9867 27.1147Z" fill="white"/>
<path d="M104.264 48.1254C105.26 48.1854 106.044 48.22 106.825 48.284C108.946 48.456 111.065 48.64 113.185 48.8174C115.813 49.0387 118.441 49.2534 121.068 49.4867C121.268 49.504 121.618 49.652 121.618 49.736C121.616 49.972 121.514 50.244 121.368 50.4374C119.357 53.0534 117.332 55.6574 115.312 58.2667C114.145 59.7734 112.982 61.2827 111.817 62.7907C111.368 63.372 111.092 63.332 110.789 62.6614C108.974 58.6374 107.154 54.616 105.34 50.592C105.005 49.8494 104.688 49.1 104.264 48.1267V48.1254Z" fill="white"/>
<path d="M82.3252 66.1481C82.5985 65.6894 82.8465 65.2121 83.1505 64.7747C83.5412 64.2147 83.9959 63.7001 84.3892 63.1414C84.6639 62.7507 84.8932 62.7321 85.2425 63.0587C86.5345 64.2707 87.8425 65.4667 89.1572 66.6547C89.2665 66.7534 89.5039 66.8254 89.6185 66.7734C89.7292 66.7227 89.7652 66.4961 89.8185 66.3427C89.9532 65.9574 90.0172 65.5307 90.2252 65.1894C90.4879 64.7574 90.9385 64.6707 91.3945 64.9147C91.8545 65.1601 91.9132 65.5574 91.6959 65.9947C91.4185 66.5534 91.6092 66.7694 92.1972 66.7814C92.3399 66.7841 92.5985 66.9254 92.5972 66.9974C92.5919 67.1667 92.5079 67.4094 92.3759 67.4854C91.3585 68.0721 91.0532 68.9827 91.1199 70.0841C91.1825 71.1214 91.1732 72.1707 91.3292 73.1947C91.4759 74.1534 92.1172 74.8721 92.8639 75.4641C93.3839 75.8761 94.0012 75.8374 94.6372 75.8494C95.4439 75.8641 96.2585 75.9947 97.0452 76.1814C97.5452 76.3001 97.8599 77.3094 97.6132 77.7907C97.5425 77.9267 97.3719 78.0641 97.2265 78.0921C97.1305 78.1107 96.9292 77.9547 96.8932 77.8401C96.5625 76.8067 95.7639 76.8601 94.9372 76.9681C94.7839 76.9881 94.6239 77.0094 94.4825 77.0667C93.1839 77.5947 92.1265 77.3147 91.0945 76.3374C89.9532 75.2561 88.2412 75.3921 86.9825 76.5427C86.2972 77.1694 85.7012 77.8934 85.0332 78.5414C84.7359 78.8294 84.3839 79.0841 84.0132 79.2601C83.8612 79.3321 83.5039 79.2174 83.3999 79.0734C83.3079 78.9454 83.3612 78.5827 83.4852 78.4534C84.6812 77.2041 85.8705 75.9427 87.1425 74.7734C87.5532 74.3947 88.1852 74.2187 88.7452 74.0494C89.6039 73.7881 89.7492 73.6747 89.6772 72.8081C89.5732 71.5494 89.4399 70.2934 89.2999 69.0387C89.2825 68.8841 89.1759 68.6654 89.0559 68.6174C88.9399 68.5721 88.7185 68.6707 88.5985 68.7707C87.2959 69.8721 86.0052 70.9894 84.7065 72.0947C84.2519 72.4814 84.0092 72.4094 83.8585 71.8467C83.4119 70.1774 82.9705 68.5054 82.5345 66.8321C82.4852 66.6414 82.4812 66.4374 82.4572 66.2401C82.4132 66.2094 82.3692 66.1801 82.3265 66.1494L82.3252 66.1481ZM83.4119 67.9667C83.6145 68.6334 83.8972 69.6494 84.2559 70.6387C84.3105 70.7894 84.8265 70.9601 84.9345 70.8747C85.9199 70.0974 86.8745 69.2787 87.8079 68.4387C88.0452 68.2241 87.9839 67.9921 87.6225 67.8507C86.6972 67.4881 85.7625 67.1347 84.8812 66.6814C83.7692 66.1107 83.4905 66.5854 83.4132 67.9654L83.4119 67.9667ZM87.8999 66.7254L87.9252 66.5347C87.0265 65.7294 86.1305 64.9214 85.2265 64.1227C85.1532 64.0574 84.9559 64.0001 84.9372 64.0254C84.6505 64.4214 84.3065 64.8027 84.1345 65.2494C83.9732 65.6681 84.3932 65.7787 84.7172 65.8787C85.6239 66.1587 86.5279 66.4481 87.4359 66.7187C87.5785 66.7614 87.7439 66.7241 87.8985 66.7241L87.8999 66.7254Z" fill="white"/>
<path d="M75.8164 61.8373C75.7911 62.9693 75.3218 63.8707 74.2951 64.372C72.5898 65.204 70.8564 65.344 69.1524 64.3373C68.4138 63.9013 68.1324 63.196 68.3018 62.3987C68.5991 60.988 68.5724 59.6587 67.8818 58.3427C67.4578 57.536 67.6231 56.9867 68.3484 56.4427C69.0484 55.9173 69.1858 55.2613 68.9151 54.5107C68.2271 52.5973 67.5298 50.6867 66.7751 48.7987C66.4591 48.0067 66.5244 47.2773 66.8418 46.5467C67.0951 45.9653 67.5658 45.8787 68.0938 46.2587C69.1298 47.004 69.5298 48.156 69.2898 49.4387C69.2164 49.8307 69.3018 50.2773 69.4111 50.6733C69.7338 51.8493 70.1178 53.008 70.4524 54.1813C70.6618 54.916 71.0618 55.3333 71.8724 55.4387C73.0591 55.5933 73.2244 55.8493 73.4124 57.052C73.5591 57.996 73.9618 58.8187 74.7058 59.4547C75.4351 60.0773 75.8684 60.844 75.8178 61.8387L75.8164 61.8373ZM71.2631 56.732C71.5818 57.3773 71.8991 58.0253 72.2218 58.6693C72.5138 59.2533 72.2951 59.8933 71.7004 60.1707C71.1324 60.436 70.4751 60.2307 70.2471 59.6573C70.1031 59.296 70.0671 58.8907 69.9898 58.5027C69.8964 58.0307 69.8458 57.5467 69.7044 57.0907C69.6551 56.9293 69.3751 56.716 69.2351 56.7387C69.0711 56.7653 68.8191 57.032 68.8271 57.1813C68.8524 57.6467 68.8791 58.1613 69.0924 58.556C69.5818 59.4613 69.8804 60.3573 69.7284 61.4093C69.6471 61.968 69.7058 62.5627 69.7978 63.1253C69.9071 63.7893 70.3151 64.3587 71.0218 64.2973C71.7431 64.2347 72.4711 63.9853 73.1444 63.6973C74.5204 63.1093 74.8044 62.1613 74.0511 60.8613C73.7884 60.408 73.4018 60.0187 73.1858 59.548C72.8271 58.7707 72.5484 57.9547 72.2591 57.1467C72.0444 56.548 71.8484 56.444 71.2631 56.7293V56.732Z" fill="white"/>
<path d="M51.2565 70.2813C50.6965 70.3253 50.2925 70.4386 49.9258 70.3626C49.5712 70.2893 49.0765 70.0893 48.9738 69.82C48.8512 69.4986 48.9618 68.9573 49.1778 68.6613C49.8218 67.7786 50.7592 67.4893 51.8338 67.6693C52.0738 67.7093 52.3098 67.7813 52.5445 67.8466C53.0685 67.9933 53.3698 67.7973 53.4218 67.2586C53.5232 66.2053 54.1125 65.5173 55.0912 65.2453C56.2218 64.9306 57.1938 65.2933 57.9325 66.216C58.0405 66.3506 58.1298 66.5173 58.1778 66.6826C58.4218 67.52 57.8978 69.08 57.2192 69.6146C56.3138 70.328 56.3352 71.3186 56.3658 72.3413C56.3858 72.996 56.3352 73.6693 56.1925 74.3066C56.0285 75.0426 55.5672 75.3093 54.9325 75.1826C54.2725 75.0506 54.1712 74.548 54.2405 74.008C54.3618 73.0626 54.4898 72.1146 54.6992 71.1866C54.8978 70.3066 54.3632 69.7106 54.0125 69.036C53.9778 68.9693 53.7765 68.908 53.7352 68.9413C53.6525 69.0106 53.5632 69.1653 53.5872 69.2546C53.9058 70.472 53.4538 71.3813 52.5992 72.244C52.3392 72.5066 52.3645 73.148 52.4125 73.6013C52.5152 74.5693 52.7405 75.5226 52.8685 76.488C52.9405 77.032 52.8312 77.5266 52.1352 77.6026C51.4405 77.6786 51.1365 77.476 51.0245 76.6906C50.8685 75.596 50.7525 74.492 50.6885 73.388C50.6592 72.868 50.5125 72.5093 50.0565 72.2426C49.7552 72.0666 49.4685 71.8346 49.2472 71.5666C49.1152 71.4066 49.0192 71.072 49.1018 70.9226C49.1792 70.7826 49.5085 70.756 49.7338 70.728C50.1418 70.6786 50.5565 70.676 50.9645 70.628C51.0365 70.62 51.0925 70.4813 51.2578 70.2813H51.2565ZM56.9965 68.5146C56.9925 68.4533 56.9885 68.392 56.9845 68.3306C55.749 68.1218 55.0881 68.1831 55.0018 68.5146H56.9965ZM55.5472 71.5786C55.4778 71.5813 55.4098 71.584 55.3405 71.5853C55.2778 72.2826 55.2165 72.9813 55.1538 73.6786C55.2085 73.6826 55.2618 73.688 55.3165 73.692C55.4592 72.9933 55.7685 72.3106 55.5472 71.5786Z" fill="white"/>
<path d="M75.5507 82.6068C75.38 83.3654 75.2373 84.0148 75.0867 84.6614C75.0213 84.9414 74.9173 85.2148 74.8733 85.4988C74.7627 86.2068 75.0573 86.6108 75.7813 86.7934C76.444 86.9601 77.1253 87.0828 77.76 87.3268C78.008 87.4228 78.1493 87.7961 78.34 88.0428C78.0893 88.2228 77.8613 88.4588 77.584 88.5708C76.828 88.8774 76.0453 89.1174 75.2853 89.4134C74.8507 89.5828 74.972 89.8948 75.188 90.1614C75.6907 90.7814 76.2427 91.3654 76.7053 92.0121C76.8827 92.2614 76.872 92.6454 76.948 92.9668C76.6413 92.9801 76.312 93.0708 76.032 92.9908C75.4387 92.8201 74.8733 92.5521 74.2907 92.3374C73.6053 92.0841 73.28 92.2308 73.0907 92.9281C72.9293 93.5268 72.8707 94.1534 72.688 94.7441C72.6 95.0268 72.3733 95.3708 72.1267 95.4641C71.9653 95.5241 71.5787 95.2348 71.424 95.0108C71.0347 94.4494 70.688 93.8521 70.3827 93.2401C70.0907 92.6548 69.6667 92.4828 69.0733 92.6721C68.3347 92.9081 67.608 93.1908 66.86 93.3948C66.5933 93.4681 66.2053 93.4708 66.0133 93.3228C65.8707 93.2121 65.884 92.7894 65.9507 92.5388C66.1333 91.8534 66.368 91.1828 66.6053 90.5134C66.8347 89.8641 66.7027 89.5588 66.0227 89.3388C65.3893 89.1334 64.74 88.9748 64.116 88.7468C63.9267 88.6774 63.796 88.4454 63.6387 88.2881C63.8133 88.1174 63.9613 87.8508 64.1667 87.7921C64.7387 87.6281 65.34 87.5694 65.9213 87.4361C66.6467 87.2681 66.7867 87.0348 66.5133 86.3548C66.3 85.8201 66.004 85.3188 65.748 84.8014C65.66 84.6228 65.5293 84.4441 65.5093 84.2561C65.484 84.0068 65.548 83.7481 65.5733 83.4948C65.8187 83.5214 66.084 83.4988 66.3067 83.5854C66.7587 83.7601 67.1827 84.0041 67.6267 84.1988C68.0533 84.3854 68.3013 84.2094 68.4 83.7708C68.5787 82.9721 68.7613 82.1734 68.948 81.3761C68.9933 81.1841 69.0213 80.9601 69.1373 80.8174C69.3053 80.6134 69.536 80.3588 69.7613 80.3374C69.9253 80.3214 70.2027 80.6094 70.2933 80.8214C70.6867 81.7388 71.032 82.6761 71.3907 83.6081C71.6533 84.2894 71.808 84.3428 72.3787 83.8988C73.096 83.3428 73.7907 82.7548 74.5253 82.2241C74.7093 82.0908 75.0427 82.0374 75.2533 82.1081C75.4093 82.1601 75.476 82.4748 75.5493 82.6121L75.5507 82.6068ZM66.9907 84.7428C66.932 84.7908 66.872 84.8388 66.8133 84.8881C67.044 85.5454 67.272 86.2028 67.5067 86.8588C67.788 87.6454 67.6373 87.9148 66.856 88.1001C66.648 88.1494 66.4653 88.2988 66.2707 88.4028C66.4507 88.5374 66.612 88.7294 66.8147 88.7948C67.608 89.0521 67.8693 89.5148 67.5733 90.3068C67.388 90.8041 67.124 91.2708 66.932 91.7668C66.8533 91.9681 66.8707 92.2081 66.8453 92.4308C67.0733 92.4281 67.3133 92.4734 67.5253 92.4148C68.2067 92.2228 68.872 91.9708 69.556 91.7841C70.132 91.6268 70.6107 91.8148 70.9187 92.3441C71.1307 92.7081 71.3107 93.0908 71.5307 93.4481C71.6013 93.5614 71.7613 93.6974 71.8693 93.6881C71.984 93.6788 72.1427 93.5281 72.1827 93.4054C72.324 92.9868 72.4133 92.5521 72.5373 92.1281C72.8173 91.1641 73.0413 91.0628 74.0267 91.3494C74.2467 91.4134 74.5067 91.3414 74.7493 91.3321C74.6733 91.0974 74.608 90.8574 74.5133 90.6308C74.4733 90.5348 74.3653 90.4681 74.2947 90.3828C73.5613 89.5068 73.7507 88.8988 74.8587 88.5988C75.0493 88.5468 75.2627 88.5654 75.4467 88.5001C75.692 88.4134 75.9187 88.2774 76.3307 88.0761C75.8813 87.8614 75.64 87.7134 75.3787 87.6281C73.8987 87.1428 73.6707 86.7481 74.0307 85.2268C74.0813 85.0121 74.1987 84.8054 74.2147 84.5908C74.232 84.3588 74.1667 84.1188 74.1387 83.8828C73.8853 83.9654 73.5893 83.9908 73.3867 84.1414C72.9653 84.4574 72.6147 84.8654 72.1973 85.1868C71.7347 85.5414 71.3187 85.4508 71.064 84.9054C70.7747 84.2828 70.5227 83.6428 70.224 83.0254C70.14 82.8521 69.948 82.7308 69.8053 82.5854C69.6813 82.7534 69.5107 82.9028 69.444 83.0908C69.2573 83.6094 69.1347 84.1508 68.9493 84.6694C68.7507 85.2241 68.3387 85.3254 67.8227 85.1081C67.544 84.9908 67.2693 84.8668 66.9933 84.7454L66.9907 84.7428Z" fill="white"/>
<path d="M51.4658 88.4307C51.8992 87.7441 52.4138 86.8494 53.0072 86.0081C54.0845 84.4827 55.7058 83.8987 57.4565 83.6521C58.3085 83.5321 59.0325 83.3027 59.6005 82.6241C59.8698 82.3027 60.2712 82.0801 60.6138 82.5094C60.7472 82.6761 60.7938 83.1401 60.6805 83.2401C59.7298 84.0734 59.5418 85.2414 59.3352 86.3561C58.9938 88.1987 57.8192 89.4974 56.5605 90.6921C56.0072 91.2174 55.1165 91.4041 54.3565 91.6801C54.2392 91.7227 53.9552 91.4547 53.8312 91.2734C53.7472 91.1507 53.8112 90.9294 53.8032 90.7521C53.7645 89.7427 53.4965 89.4681 52.4712 89.4374C51.9592 89.4227 51.5392 89.3281 51.4658 88.4294V88.4307Z" fill="white"/>
<path d="M118.856 69.7666C119.566 69.7666 120.276 69.784 120.986 69.7613C121.559 69.7427 121.846 69.9266 121.828 70.56C121.795 71.6893 121.836 72.8213 121.822 73.952C121.802 75.5466 120.49 76.8826 118.922 76.9306C117.264 76.9813 115.834 75.796 115.738 74.1853C115.663 72.9253 115.719 71.6587 115.711 70.3947C115.708 69.8747 116.055 69.772 116.463 69.7653C117.262 69.7546 118.059 69.7626 118.858 69.7626V69.7666H118.856Z" fill="white"/>
<path d="M15.3587 72.244C15.3587 71.6667 15.3734 71.0894 15.3534 70.512C15.3361 70.024 15.5787 69.816 16.0321 69.816C17.6094 69.816 19.1854 69.8267 20.7627 69.8254C21.2187 69.8254 21.4174 70.0787 21.4187 70.488C21.4241 71.7094 21.4867 72.9374 21.3814 74.1507C21.2427 75.7574 19.7947 77.0067 18.3307 76.9214C16.6027 76.8214 15.3801 75.5294 15.3627 73.7774C15.3574 73.2667 15.3627 72.756 15.3627 72.2454H15.3587V72.244Z" fill="white"/>
<path d="M128.113 70.1388C127.532 70.8254 127.04 71.4428 126.511 72.0254C125.635 72.9921 125.621 73.0187 126.447 73.9961C127.073 74.7388 127.704 75.4788 128.443 76.3494C128.097 76.3774 127.896 76.4068 127.695 76.4068C126.163 76.4108 124.631 76.3921 123.099 76.4201C122.484 76.4308 122.256 76.1628 122.259 75.5881C122.267 73.8788 122.277 72.1694 122.263 70.4601C122.259 70.0068 122.465 69.7654 122.877 69.7681C124.429 69.7814 125.983 69.8214 127.535 69.8681C127.672 69.8721 127.807 69.9908 128.112 70.1374L128.113 70.1388Z" fill="white"/>
<path d="M27.8118 70.0307C27.1505 70.7907 26.4958 71.5587 25.8238 72.3094C25.2985 72.8974 25.2838 73.1347 25.7865 73.728C26.4972 74.5667 27.2038 75.4107 28.0478 76.4134C26.7238 76.4134 25.6038 76.42 24.4852 76.4107C23.8865 76.4054 23.2892 76.3827 22.6918 76.352C22.1825 76.3267 21.9292 76.032 21.9278 75.5334C21.9225 73.8467 21.9278 72.1587 21.9238 70.472C21.9238 70.0614 22.1372 69.832 22.5265 69.828C24.2545 69.8147 25.9838 69.8227 27.7118 69.8227C27.7465 69.892 27.7798 69.9614 27.8145 70.0307H27.8118Z" fill="white"/>
<path d="M75.4522 103.849C75.4522 104.647 75.4428 105.444 75.4548 106.241C75.4655 106.911 75.1508 107.316 74.5242 107.524C73.7188 107.792 73.2895 107.507 73.2548 106.668C73.1895 105.077 73.1175 103.488 73.0468 101.897C73.0068 101.004 74.2468 100.152 75.0388 100.577C75.2482 100.689 75.4122 101.063 75.4282 101.325C75.4775 102.164 75.4468 103.008 75.4468 103.849H75.4535H75.4522Z" fill="white"/>
<path d="M69.7336 104.893C69.7336 105.603 69.7336 106.313 69.7336 107.023C69.7336 107.519 69.4789 107.74 68.9896 107.751C68.0882 107.771 67.4722 107.177 67.4776 106.277C67.4882 104.62 67.4989 102.963 67.5082 101.305C67.5122 100.64 67.8536 100.383 68.4909 100.565C69.1176 100.745 69.6096 101.327 69.6229 101.976C69.6442 102.948 69.6282 103.921 69.6282 104.895C69.6629 104.895 69.6976 104.895 69.7336 104.895V104.893Z" fill="white"/>
<path d="M72.4876 104.519C72.4876 105.383 72.497 106.247 72.485 107.111C72.4756 107.791 72.233 108.007 71.5343 107.999C70.6676 107.988 70.3476 107.767 70.3556 107.092C70.3743 105.632 70.4343 104.172 70.4649 102.712C70.4716 102.404 70.4503 102.092 70.4076 101.787C70.3249 101.204 70.5369 100.859 71.1289 100.731C72.0409 100.533 72.4396 100.793 72.477 101.728C72.5156 102.657 72.485 103.589 72.4863 104.52L72.4876 104.519Z" fill="white"/>
<path d="M71.9471 39.6547C71.9471 40.5441 71.9392 41.4321 71.9498 42.3214C71.9565 42.8107 71.8925 43.1947 71.2698 43.2374C70.3592 43.3001 69.9698 43.1454 69.8698 42.4987C69.7952 42.0201 69.8205 41.5254 69.8258 41.0374C69.8432 39.7054 69.8498 38.3721 69.9151 37.0427C69.9298 36.7281 70.0858 36.2334 70.2978 36.1561C70.6991 36.0094 71.2032 36.0414 71.6338 36.1374C71.7872 36.1707 71.9312 36.6014 71.9418 36.8561C71.9778 37.7881 71.9565 38.7227 71.9565 39.6561H71.9471V39.6547Z" fill="white"/>
<path d="M74.9269 40.1933C74.9269 41.0347 74.9429 41.876 74.9216 42.716C74.9042 43.4427 74.7002 43.572 73.9976 43.344C73.3802 43.144 72.9122 42.7453 72.8802 42.0827C72.7962 40.336 72.7549 38.5867 72.7602 36.8373C72.7602 36.6373 73.1496 36.2947 73.3896 36.2627C74.4162 36.128 74.9829 36.7467 74.9416 37.7987C74.9096 38.596 74.9349 39.3947 74.9349 40.192C74.9309 40.192 74.9282 40.192 74.9242 40.192L74.9269 40.1933Z" fill="white"/>
<path d="M68.8956 43.2427C67.0969 43.5934 67.0116 43.5254 67.0129 41.8614C67.0129 40.4854 67.0089 39.1107 67.0156 37.7347C67.0196 37.0494 67.6889 36.3401 68.3542 36.3761C68.5409 36.3867 68.8702 36.6334 68.8729 36.7761C68.9062 38.9227 68.8956 41.0707 68.8956 43.2427Z" fill="white"/>
<path d="M77.8565 41.4641C77.8565 41.9294 77.8618 42.3961 77.8551 42.8614C77.8498 43.2681 77.8525 43.6841 77.3045 43.7681C76.5605 43.8827 75.9578 43.6281 75.7978 43.1107C75.7391 42.9214 75.6991 42.7201 75.6925 42.5227C75.6391 41.1281 75.5778 39.7321 75.5645 38.3374C75.5618 38.0627 75.7578 37.7867 75.8631 37.5107C76.1165 37.6121 76.4058 37.6641 76.6151 37.8227C77.4618 38.4641 77.9271 39.3041 77.8565 40.4001C77.8338 40.7534 77.8525 41.1094 77.8525 41.4641H77.8578H77.8565Z" fill="white"/>
<path d="M76.0748 103.403C76.0748 102.716 76.0601 102.029 76.0788 101.344C76.1041 100.385 77.1295 99.7307 77.9681 100.163C78.1588 100.261 78.3521 100.572 78.3535 100.785C78.3601 101.821 78.3308 102.86 78.2588 103.893C78.1961 104.793 77.6361 105.435 76.9801 105.987C76.8295 106.113 76.5201 106.255 76.4148 106.187C76.2455 106.079 76.1055 105.804 76.0935 105.592C76.0548 104.864 76.0788 104.132 76.0788 103.401H76.0748V103.403Z" fill="white"/>
<path d="M64.7476 102.513C64.7476 101.937 64.7582 101.363 64.7436 100.787C64.7329 100.368 64.9462 100.133 65.3329 100.151C66.2596 100.189 66.7649 100.436 66.7596 101.38C66.7516 102.813 66.8716 104.247 66.9062 105.681C66.9116 105.919 66.7982 106.337 66.6796 106.361C66.4396 106.408 66.1169 106.3 65.9009 106.151C65.0782 105.585 64.6569 104.804 64.7436 103.775C64.7782 103.357 64.7489 102.933 64.7489 102.513H64.7462H64.7476Z" fill="white"/>
<path d="M66.3883 40.6C66.3883 41.3534 66.4523 42.116 66.359 42.8573C66.3177 43.1827 66.0177 43.616 65.727 43.7347C65.359 43.8854 64.8763 43.796 64.4537 43.736C64.3563 43.7227 64.235 43.4067 64.2363 43.232C64.2483 42.036 64.243 40.8373 64.3377 39.648C64.407 38.7787 65.0643 38.2494 65.7523 37.8254C66.1897 37.556 66.359 37.8774 66.367 38.272C66.3817 39.048 66.371 39.824 66.371 40.6H66.3883Z" fill="white"/>
<path d="M71.3147 62.7654C71.1147 62.6067 70.7654 62.4414 70.7787 62.3147C70.8 62.1027 71.0187 61.8041 71.2187 61.7387C71.8467 61.5307 72.5014 61.3854 73.156 61.2814C73.3227 61.2547 73.5614 61.4401 73.6947 61.5921C73.7387 61.6414 73.5894 61.9881 73.4654 62.0361C72.7867 62.2987 72.088 62.5107 71.3147 62.7667V62.7654Z" fill="white"/>
<path d="M70.2989 86.4307C70.3336 86.7533 70.3603 87.008 70.4083 87.4587C70.6616 87.1653 70.8016 86.9707 70.9763 86.8147C71.0936 86.7093 71.2616 86.66 71.4056 86.5867C71.4589 86.7213 71.5576 86.856 71.5576 86.9907C71.5576 87.2307 71.4603 87.4733 71.4749 87.7107C71.4856 87.8747 71.5896 88.1307 71.7056 88.1653C71.8443 88.2067 72.0869 88.0987 72.1989 87.9773C72.3243 87.8413 72.3163 87.5893 72.4323 87.44C72.5496 87.2893 72.7483 87.2027 72.9109 87.088C73.0136 87.2827 73.2509 87.5427 73.1949 87.6587C72.9616 88.1347 72.7056 88.636 72.3283 88.9907C72.0163 89.284 71.7389 89.4853 71.6403 89.9613C71.5856 90.2293 71.1363 90.6013 70.8709 90.5973C70.4909 90.592 70.0643 90.3427 69.7656 90.076C69.6443 89.968 69.7096 89.468 69.8576 89.2747C70.1723 88.8653 70.0243 88.544 69.8469 88.172C69.4656 87.3693 69.5843 86.844 70.2976 86.432L70.2989 86.4307Z" fill="white"/>
<path d="M79.0082 101.631C79.0082 101.408 79.0069 101.187 79.0082 100.964C79.0189 100.037 79.2148 99.804 80.0895 99.436C81.6415 98.7814 83.2162 98.164 84.7148 97.4C86.8962 96.288 88.8722 94.8467 90.7189 93.24C95.6855 88.9187 98.6349 83.44 99.8429 77.02C100.72 72.3587 100.399 67.7347 98.9762 63.2094C96.7029 55.9814 92.0895 50.6174 85.5722 46.9107C83.6828 45.836 81.5255 45.228 79.4722 44.456C78.7868 44.1987 78.4602 43.7987 78.4789 43.08C78.4935 42.5027 78.4602 41.924 78.4882 41.3467C78.5295 40.5027 78.8709 40.3147 79.6735 40.6107C80.5442 40.9307 81.4109 41.388 82.3109 41.4774C83.4802 41.5947 84.7255 41.5947 85.8589 41.32C90.2055 40.2654 95.8655 43.6387 96.1655 48.816C96.3495 52.0054 98.0415 54.4 101.119 55.64C105.836 57.54 107.91 63.3867 105.191 67.7494C103.356 70.6934 103.623 73.4774 105.36 76.1174C107.791 79.8107 106.275 86.3507 101.442 88.2974C99.0589 89.2574 97.2362 90.8627 96.5722 93.4814C96.3988 94.1667 96.3162 94.876 96.1962 95.576C95.5775 99.2094 93.1855 101.225 89.9135 102.396C88.4228 102.929 86.8829 102.788 85.3842 102.387C83.8429 101.973 82.3975 102.251 80.9655 102.817C80.5535 102.98 80.1402 103.14 79.7189 103.275C79.2735 103.416 79.0295 103.219 79.0095 102.764C78.9935 102.387 79.0055 102.009 79.0069 101.631H79.0082ZM92.5495 47.348C92.5402 47.164 92.5628 47.0774 92.5295 47.0454C91.5615 46.0947 90.6015 45.1347 89.6015 44.216C89.4495 44.0774 89.1122 44.152 88.8669 44.0987C88.7709 44.0774 88.6975 43.9667 88.6042 43.9147C88.3375 43.7667 88.0789 43.5787 87.7909 43.5014C87.4855 43.4187 87.1522 43.4467 86.8308 43.4254C87.0988 43.6654 87.3282 44.008 87.6429 44.1294C89.2682 44.7507 90.8388 45.4294 91.9308 46.88C92.0628 47.0547 92.2922 47.156 92.5495 47.3467V47.348ZM100.879 85.0427C101.14 84.8414 101.362 84.7534 101.44 84.5947C101.714 84.0427 101.944 83.468 102.18 82.8974C102.475 82.188 102.751 81.4707 103.048 80.7627C103.314 80.1307 103.408 79.5147 103.026 78.9174C102.327 80.9094 101.635 82.8854 100.879 85.0427ZM101.072 59.204C101.767 60.9174 102.476 62.668 103.195 64.4427C103.487 62.5987 102.258 59.6534 101.072 59.204ZM92.7775 97.1134C91.6535 98.064 90.5815 98.9694 89.4215 99.952C90.9708 99.628 92.8335 98.0507 92.7775 97.1134Z" fill="white"/>
<path d="M54.4053 41.064C55.168 41.1934 55.944 41.2667 56.688 41.464C58.4747 41.9387 60.164 41.6294 61.8187 40.9414C63.2573 40.344 63.452 40.468 63.4507 42.0334C63.4507 42.58 63.5267 43.1467 63.404 43.6667C63.3347 43.964 62.98 44.32 62.68 44.416C58.1507 45.864 54.2427 48.3627 50.8053 51.5774C47.2693 54.884 44.8547 58.932 43.4067 63.5574C41.6813 69.0707 41.5747 74.644 43.2107 80.1454C44.7573 85.3454 47.5853 89.848 51.764 93.3867C54.7307 95.9 57.988 97.9374 61.76 99.0827C64.004 99.764 63.9867 99.8227 63.988 102.164C63.988 103.819 63.8867 103.889 62.464 103.145C60.6293 102.187 58.6787 102.209 56.744 102.611C54.34 103.109 52.2173 102.627 50.16 101.328C48.3613 100.193 47.1773 98.6614 46.5733 96.6627C46.4093 96.1187 46.4173 95.5254 46.3267 94.9574C46.0293 93.1134 45.528 91.3134 44.0787 90.048C43.1773 89.2614 42.0893 88.652 41.0067 88.1227C39.6627 87.4654 38.6627 86.5107 37.6547 85.416C36.0707 83.6947 36.1787 81.6534 36.08 79.62C36.056 79.1174 36.276 78.572 36.4867 78.0934C36.9053 77.144 37.3867 76.2227 37.86 75.2987C38.6747 73.712 38.7493 72.0334 38.2587 70.38C37.9093 69.2054 37.3307 68.0907 36.7787 66.988C35.352 64.14 35.8453 61.468 37.4387 58.88C38.36 57.3814 39.808 56.5907 41.3387 55.828C43.6973 54.6534 45.5347 52.9534 46.0347 50.1894C46.192 49.3214 46.2947 48.4414 46.4813 47.58C47.048 44.9614 48.7293 43.2894 51.104 42.2187C51.3053 42.128 51.4933 42.0067 51.68 41.8894C52.508 41.3667 53.3907 41.0427 54.404 41.0614L54.4053 41.064ZM38.4947 78.14L38.1493 78.084C38.0147 78.688 37.7467 79.2987 37.7693 79.8974C37.8347 81.6174 37.872 83.3827 39.304 84.672C39.456 84.8094 39.6667 84.88 39.8493 84.9827C39.828 84.7747 39.868 84.5334 39.776 84.3627C39.444 83.7494 38.9547 83.1987 38.732 82.552C38.3493 81.4454 38.1107 80.2934 38.4827 79.1027C38.5747 78.8094 38.496 78.4614 38.496 78.1387L38.4947 78.14ZM41.4133 59.5054C39.94 60.6574 38.9293 64.228 39.5187 65.564C40.116 63.652 40.7507 61.624 41.4133 59.5054ZM49.568 96.1054C49.552 96.34 49.5107 96.448 49.5467 96.4934C49.9187 96.9574 50.2933 97.4214 50.688 97.8667C51.8373 99.1667 53.3613 99.884 54.9227 100.531C55.068 100.591 55.296 100.452 55.4853 100.404C55.352 100.239 55.2507 99.9907 55.08 99.924C54.6573 99.76 54.1707 99.7467 53.7667 99.5547C52.1387 98.78 50.888 97.5227 49.568 96.1054ZM53.2413 43.952C53.2173 43.908 53.1947 43.864 53.1707 43.82C52.9667 43.8734 52.732 43.8787 52.5653 43.988C51.9053 44.42 51.2653 44.88 50.6227 45.3374C49.636 46.0387 49.0947 47.0374 48.792 48.1747C48.7493 48.3347 48.884 48.5414 48.936 48.7267C49.0627 48.596 49.2707 48.4827 49.3027 48.3307C49.648 46.7134 50.728 45.6814 52.032 44.8147C52.444 44.54 52.8387 44.2387 53.2413 43.9507V43.952Z" fill="white"/>
<path d="M104.219 35.6174C104.57 36.2414 104.92 36.712 105.116 37.2414C105.926 39.4294 103.672 43.304 100.324 42.7294C98.5444 42.424 97.1617 41.4854 95.7364 40.5787C93.5497 39.1867 91.4164 37.712 89.2751 36.2507C88.3217 35.5987 88.3137 35.5574 88.9324 34.5974C91.3964 30.78 93.8697 26.968 96.3577 23.1654C97.0564 22.0974 97.3551 22.0587 98.4004 22.7534C100.966 24.456 103.542 26.144 106.082 27.884C106.971 28.4934 107.666 29.32 107.956 30.3974C108.472 32.312 107.174 34.6054 105.212 35.2827C104.89 35.3947 104.564 35.5014 104.219 35.6174Z" fill="white"/>
<path d="M66.6972 121.775C67.5266 123.395 68.3226 124.951 69.1199 126.507C69.3732 127.001 69.6346 127.491 69.8826 127.988C70.2119 128.649 70.0972 128.897 69.3839 128.805C68.0212 128.631 66.6666 128.384 65.3186 128.121C62.6426 127.601 59.9706 127.053 57.2986 126.509C56.4079 126.328 55.5292 126.079 54.6332 125.941C53.9812 125.841 53.8906 125.485 53.9986 124.959C54.3506 123.243 54.7172 121.531 55.0612 119.812C55.6346 116.944 56.2052 114.075 56.7559 111.201C56.9479 110.199 57.1439 110.024 58.1372 110.228C61.0252 110.819 63.9186 111.389 66.7946 112.031C68.7732 112.472 70.3479 113.492 70.8719 115.593C71.5692 118.385 69.9279 120.968 67.1239 121.607C67.0199 121.631 66.9226 121.684 66.6986 121.772L66.6972 121.775Z" fill="white"/>
<path d="M76.507 32.4467C71.6683 32.5053 66.831 32.564 61.9923 32.6213C61.7697 32.624 61.547 32.628 61.3257 32.6133C60.8097 32.5773 60.5643 32.3293 60.6523 31.7827C61.0643 29.2453 61.471 26.7067 61.871 24.1667C62.2603 21.6933 62.635 19.2187 63.027 16.7453C63.059 16.5467 63.1843 16.364 63.267 16.1733C63.4483 16.304 63.6697 16.4027 63.807 16.5707C65.755 18.9573 67.691 21.356 69.6323 23.748C69.911 24.092 70.211 24.42 70.4963 24.7587C70.8137 25.1347 71.1203 25.132 71.427 24.748C72.2283 23.744 73.0323 22.7427 73.8297 21.736C75.179 20.0333 76.5217 18.3253 77.8763 16.628C77.9563 16.5267 78.1563 16.428 78.2563 16.4613C78.3617 16.496 78.463 16.684 78.4843 16.8173C78.8937 19.488 79.2883 22.1613 79.691 24.8347C80.0177 27.004 80.3443 29.1733 80.6843 31.3413C80.8057 32.1147 80.6817 32.3307 79.903 32.3507C78.771 32.38 77.6377 32.3587 76.5057 32.3587C76.5057 32.388 76.5057 32.4187 76.5057 32.448L76.507 32.4467Z" fill="white"/>
<path d="M37.4318 50.4041C37.4385 51.9227 37.1051 53.3481 36.2838 54.6467C35.1491 56.4427 34.2558 58.4027 32.6745 59.8947C31.9625 60.5667 31.7771 60.5867 31.1051 59.8641C30.0305 58.7107 28.9531 57.5601 27.9065 56.3814C27.4971 55.9214 27.1838 55.8267 26.6305 56.2227C24.8825 57.4774 22.9971 57.5094 21.1905 56.4241C19.2825 55.2787 18.5251 53.4681 18.6771 51.2681C18.7665 49.9921 19.2651 48.8507 19.9438 47.8001C20.9878 46.1814 22.0571 44.5761 23.1771 43.0107C23.6505 42.3507 24.0225 42.4307 24.5785 43.0187C25.6611 44.1641 26.7825 45.2734 27.8731 46.4121C28.3158 46.8747 28.6211 46.5841 28.9265 46.2667C29.7091 45.4521 30.6051 44.9254 31.7825 44.8987C34.9531 44.8281 37.4345 47.2294 37.4305 50.4014L37.4318 50.4041Z" fill="white"/>
<path d="M124.704 88.8134C124.388 89.5547 124.085 90.3027 123.752 91.0361C121.886 95.1347 120.016 99.232 118.141 103.327C117.772 104.133 117.386 104.933 116.992 105.729C116.898 105.917 116.741 106.072 116.612 106.243C116.433 106.1 116.202 105.991 116.082 105.808C114.29 103.085 112.512 100.353 110.733 97.6214C110.262 96.8987 109.81 96.1614 109.33 95.4454C108.88 94.7721 108.705 94.748 108.052 95.2054C106.67 96.172 105.293 97.1454 103.908 98.108C103.725 98.2347 103.512 98.3174 103.313 98.4214C103.262 98.3774 103.212 98.3347 103.161 98.2907C103.6 97.236 104.002 96.1654 104.485 95.132C106.168 91.536 107.88 87.952 109.581 84.364C109.97 83.5414 110.346 82.712 110.757 81.9C110.878 81.6614 111.102 81.476 111.28 81.2654C111.457 81.448 111.672 81.6067 111.808 81.816C114.049 85.2547 116.276 88.7027 118.518 92.1414C119.085 93.0107 119.182 93.0107 119.989 92.3387C121.352 91.2027 122.709 90.0614 124.072 88.9281C124.198 88.8227 124.353 88.752 124.494 88.6654C124.564 88.716 124.634 88.7667 124.704 88.816V88.8134Z" fill="white"/>
<path d="M36.9066 94.9173C36.996 98.7693 33.936 102.16 30.276 102.799C26.62 103.436 23.496 101.804 21.64 98.2653C20.8866 96.8307 20.1706 95.376 19.4506 93.9253C19.0266 93.0693 19.052 92.9827 19.904 92.5547C23.1706 90.9133 26.4453 89.2853 29.7133 87.6467C30.6253 87.1893 31.5186 86.6907 32.436 86.244C33.188 85.8787 33.3693 85.952 33.7373 86.6867C34.5826 88.3734 35.4866 90.0347 36.2346 91.764C36.656 92.74 36.8146 93.8307 37.0906 94.8693C37.0293 94.8853 36.968 94.9027 36.9066 94.9187V94.9173Z" fill="white"/>
<path d="M42.0895 99.3147C42.3308 99.4934 42.5255 99.604 42.6788 99.756C44.2442 101.299 45.7988 102.851 47.3628 104.393C48.3108 105.328 49.2775 106.245 50.2215 107.184C50.7895 107.749 50.7895 108.027 50.2268 108.576C49.4015 109.383 48.5575 110.169 47.7242 110.968C47.3642 111.313 47.0322 111.296 46.6882 110.937C46.3028 110.537 45.9042 110.152 45.5068 109.764C45.2362 109.5 44.9615 109.391 44.6522 109.728C44.3508 110.057 44.5362 110.297 44.7815 110.517C45.0775 110.784 45.3975 111.024 45.6935 111.291C46.3002 111.836 46.3282 112.315 45.7602 112.883C45.2908 113.352 44.7882 113.789 44.2975 114.239C44.0042 114.508 43.7348 114.521 43.4362 114.213C42.9562 113.721 42.4708 113.225 41.9362 112.797C41.7455 112.645 41.4028 112.683 41.1295 112.635C41.1868 112.899 41.1628 113.233 41.3175 113.416C41.7922 113.972 42.3322 114.472 42.8522 114.988C43.2188 115.352 43.2482 115.687 42.8562 116.069C41.9828 116.923 41.1322 117.8 40.2668 118.663C39.7135 119.215 39.5535 119.219 39.0068 118.677C36.7508 116.443 34.4948 114.207 32.2468 111.963C30.8722 110.591 30.8668 110.569 32.2548 109.155C34.2615 107.111 36.2948 105.091 38.3082 103.053C39.3375 102.012 40.3468 100.949 41.3748 99.9054C41.5842 99.692 41.8362 99.5214 42.0868 99.316L42.0895 99.3147Z" fill="white"/>
<path d="M87.8216 91.3014C86.915 91.0454 85.9123 90.4507 85.0563 89.6227C84.0203 88.62 83.3376 87.3734 83.127 85.972C82.9016 84.4787 82.103 83.4427 81.055 82.456C78.4683 80.0214 75.9336 77.532 73.3763 75.068C72.8963 74.6054 72.4123 74.1494 71.9243 73.6974C71.239 73.064 71.0016 73.04 70.2963 73.716C69.143 74.82 68.031 75.968 66.899 77.0947C65.5763 78.4107 64.2523 79.7254 62.9243 81.0374C62.767 81.192 62.6056 81.4107 62.4163 81.4494C62.1283 81.508 61.8136 81.4347 61.511 81.4187C61.5576 81.136 61.5216 80.796 61.6683 80.5827C61.9296 80.204 62.3016 79.9027 62.6283 79.5694C64.8496 77.3 67.0723 75.032 69.2936 72.7627C70.0203 72.02 70.0256 71.8014 69.2803 71.068C67.271 69.092 65.2483 67.128 63.2403 65.1507C62.007 63.936 60.7816 62.712 59.5656 61.48C59.2136 61.1227 58.883 60.9094 58.3323 61.0814C58.1456 61.14 57.7616 60.8934 57.615 60.684C57.315 60.2587 57.027 60.1307 56.5576 60.3974C55.9523 60.7427 55.6896 60.244 55.475 59.8547C54.8216 58.6694 54.2136 57.46 53.5896 56.26C53.283 55.6694 52.9643 55.084 52.6883 54.48C52.6083 54.3054 52.5763 53.948 52.663 53.892C52.8363 53.78 53.1363 53.74 53.331 53.812C53.7016 53.948 54.0283 54.196 54.3856 54.3747C55.755 55.0614 57.1296 55.736 58.499 56.42C58.7563 56.548 59.0456 56.6574 59.2363 56.856C59.3616 56.9854 59.447 57.3587 59.363 57.4534C58.8896 57.9787 59.1843 58.3134 59.6123 58.58C60.1083 58.8867 60.2963 59.216 59.987 59.7774C59.923 59.8934 60.0536 60.2014 60.1843 60.3294C63.5776 63.656 66.9816 66.972 70.391 70.2827C70.9683 70.844 71.219 70.8414 71.7923 70.2654C74.631 67.4187 77.4576 64.5614 80.2896 61.7067C80.679 61.3147 81.0576 60.9107 81.4576 60.5294C81.8536 60.1507 82.195 59.792 82.0283 59.148C81.983 58.9707 82.247 58.636 82.4523 58.4867C82.9523 58.124 83.259 57.8107 82.7003 57.2267C82.3923 56.9054 82.6123 56.6014 82.9496 56.4254C84.8363 55.436 86.7216 54.4427 88.623 53.484C88.8363 53.376 89.1536 53.4734 89.423 53.476C89.411 53.7267 89.4763 54.016 89.3736 54.22C88.411 56.1214 87.423 58.0094 86.435 59.8974C86.235 60.2787 85.959 60.412 85.5816 60.0854C85.1416 59.7054 84.815 59.864 84.5763 60.3267C84.2976 60.8667 83.979 61.1974 83.327 60.772C83.219 60.7014 82.851 60.892 82.6936 61.052C80.7123 63.056 78.7536 65.0827 76.7776 67.0934C75.5336 68.3587 74.279 69.6134 73.0163 70.8614C72.151 71.716 72.1176 71.9054 72.9576 72.7374C74.8336 74.596 76.7416 76.424 78.615 78.2854C79.559 79.2227 80.507 80.164 81.3643 81.1787C82.591 82.628 84.1563 83.34 85.975 83.728C88.3923 84.244 89.995 85.78 90.8576 88.0774C91.1403 88.8307 90.9323 89.0947 90.1403 89.1734C89.0776 89.2787 88.8243 89.532 88.727 90.6307C88.691 91.0427 88.635 91.404 87.8256 91.3054L87.8216 91.3014Z" fill="white"/>
<path d="M109.223 113.661C109.053 113.861 108.925 114.069 108.746 114.213C106.898 115.701 105.042 117.179 103.19 118.661C102.823 118.955 102.526 118.919 102.23 118.54C100.113 115.832 97.9832 113.133 95.8632 110.428C95.0152 109.345 94.1872 108.247 93.3312 107.172C92.9619 106.709 92.9072 106.328 93.4139 105.928C95.2045 104.512 96.9779 103.075 98.7752 101.667C99.4019 101.176 99.6059 101.245 100.083 101.853C102.477 104.908 104.878 107.956 107.278 111.005C107.813 111.685 108.355 112.357 108.882 113.043C109.013 113.212 109.094 113.42 109.225 113.66L109.223 113.661Z" fill="white"/>
<path d="M79.3664 128.007C79.3144 127.781 79.1944 127.56 79.2317 127.369C79.561 125.695 79.929 124.028 80.2637 122.355C80.9677 118.836 81.6517 115.313 82.369 111.797C82.429 111.507 82.6184 111.173 82.853 111.015C82.9717 110.935 83.3837 111.141 83.5637 111.32C86.573 114.3 89.5664 117.297 92.5624 120.289C93.253 120.98 93.9504 121.664 94.637 122.359C95.1544 122.883 95.1197 123.02 94.4384 123.235C89.5757 124.775 84.713 126.315 79.8517 127.855C79.7464 127.888 79.6397 127.92 79.3664 128.005V128.007Z" fill="white"/>
<path d="M38.9867 27.1147C39.4427 27.2827 39.6947 27.3521 39.9253 27.4641C43.6187 29.2574 47.308 31.0587 51 32.8547C51.9987 33.3401 53.0053 33.8081 54 34.3001C54.6 34.5961 54.636 34.8561 54.0947 35.2561C52.4533 36.4694 50.7933 37.6561 49.144 38.8587C46.7427 40.6107 44.3467 42.3694 41.944 44.1214C41.2733 44.6107 41.1173 44.5401 41.012 43.7107C40.444 39.2227 39.8747 34.7361 39.3147 30.2481C39.192 29.2681 39.1067 28.2841 38.9854 27.1161L38.9867 27.1147Z" fill="white"/>
<path d="M104.264 48.1254C105.26 48.1854 106.044 48.22 106.825 48.284C108.946 48.456 111.065 48.64 113.185 48.8174C115.813 49.0387 118.441 49.2534 121.068 49.4867C121.268 49.504 121.618 49.652 121.618 49.736C121.616 49.972 121.514 50.244 121.368 50.4374C119.357 53.0534 117.332 55.6574 115.312 58.2667C114.145 59.7734 112.982 61.2827 111.817 62.7907C111.368 63.372 111.092 63.332 110.789 62.6614C108.974 58.6374 107.154 54.616 105.34 50.592C105.005 49.8494 104.688 49.1 104.264 48.1267V48.1254Z" fill="white"/>
<path d="M82.3252 66.1481C82.5985 65.6894 82.8465 65.2121 83.1505 64.7747C83.5412 64.2147 83.9959 63.7001 84.3892 63.1414C84.6639 62.7507 84.8932 62.7321 85.2425 63.0587C86.5345 64.2707 87.8425 65.4667 89.1572 66.6547C89.2665 66.7534 89.5039 66.8254 89.6185 66.7734C89.7292 66.7227 89.7652 66.4961 89.8185 66.3427C89.9532 65.9574 90.0172 65.5307 90.2252 65.1894C90.4879 64.7574 90.9385 64.6707 91.3945 64.9147C91.8545 65.1601 91.9132 65.5574 91.6959 65.9947C91.4185 66.5534 91.6092 66.7694 92.1972 66.7814C92.3399 66.7841 92.5985 66.9254 92.5972 66.9974C92.5919 67.1667 92.5079 67.4094 92.3759 67.4854C91.3585 68.0721 91.0532 68.9827 91.1199 70.0841C91.1825 71.1214 91.1732 72.1707 91.3292 73.1947C91.4759 74.1534 92.1172 74.8721 92.8639 75.4641C93.3839 75.8761 94.0012 75.8374 94.6372 75.8494C95.4439 75.8641 96.2585 75.9947 97.0452 76.1814C97.5452 76.3001 97.8599 77.3094 97.6132 77.7907C97.5425 77.9267 97.3719 78.0641 97.2265 78.0921C97.1305 78.1107 96.9292 77.9547 96.8932 77.8401C96.5625 76.8067 95.7639 76.8601 94.9372 76.9681C94.7839 76.9881 94.6239 77.0094 94.4825 77.0667C93.1839 77.5947 92.1265 77.3147 91.0945 76.3374C89.9532 75.2561 88.2412 75.3921 86.9825 76.5427C86.2972 77.1694 85.7012 77.8934 85.0332 78.5414C84.7359 78.8294 84.3839 79.0841 84.0132 79.2601C83.8612 79.3321 83.5039 79.2174 83.3999 79.0734C83.3079 78.9454 83.3612 78.5827 83.4852 78.4534C84.6812 77.2041 85.8705 75.9427 87.1425 74.7734C87.5532 74.3947 88.1852 74.2187 88.7452 74.0494C89.6039 73.7881 89.7492 73.6747 89.6772 72.8081C89.5732 71.5494 89.4399 70.2934 89.2999 69.0387C89.2825 68.8841 89.1759 68.6654 89.0559 68.6174C88.9399 68.5721 88.7185 68.6707 88.5985 68.7707C87.2959 69.8721 86.0052 70.9894 84.7065 72.0947C84.2519 72.4814 84.0092 72.4094 83.8585 71.8467C83.4119 70.1774 82.9705 68.5054 82.5345 66.8321C82.4852 66.6414 82.4812 66.4374 82.4572 66.2401C82.4132 66.2094 82.3692 66.1801 82.3265 66.1494L82.3252 66.1481ZM83.4119 67.9667C83.6145 68.6334 83.8972 69.6494 84.2559 70.6387C84.3105 70.7894 84.8265 70.9601 84.9345 70.8747C85.9199 70.0974 86.8745 69.2787 87.8079 68.4387C88.0452 68.2241 87.9839 67.9921 87.6225 67.8507C86.6972 67.4881 85.7625 67.1347 84.8812 66.6814C83.7692 66.1107 83.4905 66.5854 83.4132 67.9654L83.4119 67.9667ZM87.8999 66.7254L87.9252 66.5347C87.0265 65.7294 86.1305 64.9214 85.2265 64.1227C85.1532 64.0574 84.9559 64.0001 84.9372 64.0254C84.6505 64.4214 84.3065 64.8027 84.1345 65.2494C83.9732 65.6681 84.3932 65.7787 84.7172 65.8787C85.6239 66.1587 86.5279 66.4481 87.4359 66.7187C87.5785 66.7614 87.7439 66.7241 87.8985 66.7241L87.8999 66.7254Z" fill="white"/>
<path d="M75.8164 61.8373C75.7911 62.9693 75.3218 63.8707 74.2951 64.372C72.5898 65.204 70.8564 65.344 69.1524 64.3373C68.4138 63.9013 68.1324 63.196 68.3018 62.3987C68.5991 60.988 68.5724 59.6587 67.8818 58.3427C67.4578 57.536 67.6231 56.9867 68.3484 56.4427C69.0484 55.9173 69.1858 55.2613 68.9151 54.5107C68.2271 52.5973 67.5298 50.6867 66.7751 48.7987C66.4591 48.0067 66.5244 47.2773 66.8418 46.5467C67.0951 45.9653 67.5658 45.8787 68.0938 46.2587C69.1298 47.004 69.5298 48.156 69.2898 49.4387C69.2164 49.8307 69.3018 50.2773 69.4111 50.6733C69.7338 51.8493 70.1178 53.008 70.4524 54.1813C70.6618 54.916 71.0618 55.3333 71.8724 55.4387C73.0591 55.5933 73.2244 55.8493 73.4124 57.052C73.5591 57.996 73.9618 58.8187 74.7058 59.4547C75.4351 60.0773 75.8684 60.844 75.8178 61.8387L75.8164 61.8373ZM71.2631 56.732C71.5818 57.3773 71.8991 58.0253 72.2218 58.6693C72.5138 59.2533 72.2951 59.8933 71.7004 60.1707C71.1324 60.436 70.4751 60.2307 70.2471 59.6573C70.1031 59.296 70.0671 58.8907 69.9898 58.5027C69.8964 58.0307 69.8458 57.5467 69.7044 57.0907C69.6551 56.9293 69.3751 56.716 69.2351 56.7387C69.0711 56.7653 68.8191 57.032 68.8271 57.1813C68.8524 57.6467 68.8791 58.1613 69.0924 58.556C69.5818 59.4613 69.8804 60.3573 69.7284 61.4093C69.6471 61.968 69.7058 62.5627 69.7978 63.1253C69.9071 63.7893 70.3151 64.3587 71.0218 64.2973C71.7431 64.2347 72.4711 63.9853 73.1444 63.6973C74.5204 63.1093 74.8044 62.1613 74.0511 60.8613C73.7884 60.408 73.4018 60.0187 73.1858 59.548C72.8271 58.7707 72.5484 57.9547 72.2591 57.1467C72.0444 56.548 71.8484 56.444 71.2631 56.7293V56.732Z" fill="white"/>
<path d="M51.2565 70.2813C50.6965 70.3253 50.2925 70.4386 49.9258 70.3626C49.5712 70.2893 49.0765 70.0893 48.9738 69.82C48.8512 69.4986 48.9618 68.9573 49.1778 68.6613C49.8218 67.7786 50.7592 67.4893 51.8338 67.6693C52.0738 67.7093 52.3098 67.7813 52.5445 67.8466C53.0685 67.9933 53.3698 67.7973 53.4218 67.2586C53.5232 66.2053 54.1125 65.5173 55.0912 65.2453C56.2218 64.9306 57.1938 65.2933 57.9325 66.216C58.0405 66.3506 58.1298 66.5173 58.1778 66.6826C58.4218 67.52 57.8978 69.08 57.2192 69.6146C56.3138 70.328 56.3352 71.3186 56.3658 72.3413C56.3858 72.996 56.3352 73.6693 56.1925 74.3066C56.0285 75.0426 55.5672 75.3093 54.9325 75.1826C54.2725 75.0506 54.1712 74.548 54.2405 74.008C54.3618 73.0626 54.4898 72.1146 54.6992 71.1866C54.8978 70.3066 54.3632 69.7106 54.0125 69.036C53.9778 68.9693 53.7765 68.908 53.7352 68.9413C53.6525 69.0106 53.5632 69.1653 53.5872 69.2546C53.9058 70.472 53.4538 71.3813 52.5992 72.244C52.3392 72.5066 52.3645 73.148 52.4125 73.6013C52.5152 74.5693 52.7405 75.5226 52.8685 76.488C52.9405 77.032 52.8312 77.5266 52.1352 77.6026C51.4405 77.6786 51.1365 77.476 51.0245 76.6906C50.8685 75.596 50.7525 74.492 50.6885 73.388C50.6592 72.868 50.5125 72.5093 50.0565 72.2426C49.7552 72.0666 49.4685 71.8346 49.2472 71.5666C49.1152 71.4066 49.0192 71.072 49.1018 70.9226C49.1792 70.7826 49.5085 70.756 49.7338 70.728C50.1418 70.6786 50.5565 70.676 50.9645 70.628C51.0365 70.62 51.0925 70.4813 51.2578 70.2813H51.2565ZM56.9965 68.5146C56.9925 68.4533 56.9885 68.392 56.9845 68.3306C55.749 68.1218 55.0881 68.1831 55.0018 68.5146H56.9965ZM55.5472 71.5786C55.4778 71.5813 55.4098 71.584 55.3405 71.5853C55.2778 72.2826 55.2165 72.9813 55.1538 73.6786C55.2085 73.6826 55.2618 73.688 55.3165 73.692C55.4592 72.9933 55.7685 72.3106 55.5472 71.5786Z" fill="white"/>
<path d="M75.5507 82.6068C75.38 83.3654 75.2373 84.0148 75.0867 84.6614C75.0213 84.9414 74.9173 85.2148 74.8733 85.4988C74.7627 86.2068 75.0573 86.6108 75.7813 86.7934C76.444 86.9601 77.1253 87.0828 77.76 87.3268C78.008 87.4228 78.1493 87.7961 78.34 88.0428C78.0893 88.2228 77.8613 88.4588 77.584 88.5708C76.828 88.8774 76.0453 89.1174 75.2853 89.4134C74.8507 89.5828 74.972 89.8948 75.188 90.1614C75.6907 90.7814 76.2427 91.3654 76.7053 92.0121C76.8827 92.2614 76.872 92.6454 76.948 92.9668C76.6413 92.9801 76.312 93.0708 76.032 92.9908C75.4387 92.8201 74.8733 92.5521 74.2907 92.3374C73.6053 92.0841 73.28 92.2308 73.0907 92.9281C72.9293 93.5268 72.8707 94.1534 72.688 94.7441C72.6 95.0268 72.3733 95.3708 72.1267 95.4641C71.9653 95.5241 71.5787 95.2348 71.424 95.0108C71.0347 94.4494 70.688 93.8521 70.3827 93.2401C70.0907 92.6548 69.6667 92.4828 69.0733 92.6721C68.3347 92.9081 67.608 93.1908 66.86 93.3948C66.5933 93.4681 66.2053 93.4708 66.0133 93.3228C65.8707 93.2121 65.884 92.7894 65.9507 92.5388C66.1333 91.8534 66.368 91.1828 66.6053 90.5134C66.8347 89.8641 66.7027 89.5588 66.0227 89.3388C65.3893 89.1334 64.74 88.9748 64.116 88.7468C63.9267 88.6774 63.796 88.4454 63.6387 88.2881C63.8133 88.1174 63.9613 87.8508 64.1667 87.7921C64.7387 87.6281 65.34 87.5694 65.9213 87.4361C66.6467 87.2681 66.7867 87.0348 66.5133 86.3548C66.3 85.8201 66.004 85.3188 65.748 84.8014C65.66 84.6228 65.5293 84.4441 65.5093 84.2561C65.484 84.0068 65.548 83.7481 65.5733 83.4948C65.8187 83.5214 66.084 83.4988 66.3067 83.5854C66.7587 83.7601 67.1827 84.0041 67.6267 84.1988C68.0533 84.3854 68.3013 84.2094 68.4 83.7708C68.5787 82.9721 68.7613 82.1734 68.948 81.3761C68.9933 81.1841 69.0213 80.9601 69.1373 80.8174C69.3053 80.6134 69.536 80.3588 69.7613 80.3374C69.9253 80.3214 70.2027 80.6094 70.2933 80.8214C70.6867 81.7388 71.032 82.6761 71.3907 83.6081C71.6533 84.2894 71.808 84.3428 72.3787 83.8988C73.096 83.3428 73.7907 82.7548 74.5253 82.2241C74.7093 82.0908 75.0427 82.0374 75.2533 82.1081C75.4093 82.1601 75.476 82.4748 75.5493 82.6121L75.5507 82.6068ZM66.9907 84.7428C66.932 84.7908 66.872 84.8388 66.8133 84.8881C67.044 85.5454 67.272 86.2028 67.5067 86.8588C67.788 87.6454 67.6373 87.9148 66.856 88.1001C66.648 88.1494 66.4653 88.2988 66.2707 88.4028C66.4507 88.5374 66.612 88.7294 66.8147 88.7948C67.608 89.0521 67.8693 89.5148 67.5733 90.3068C67.388 90.8041 67.124 91.2708 66.932 91.7668C66.8533 91.9681 66.8707 92.2081 66.8453 92.4308C67.0733 92.4281 67.3133 92.4734 67.5253 92.4148C68.2067 92.2228 68.872 91.9708 69.556 91.7841C70.132 91.6268 70.6107 91.8148 70.9187 92.3441C71.1307 92.7081 71.3107 93.0908 71.5307 93.4481C71.6013 93.5614 71.7613 93.6974 71.8693 93.6881C71.984 93.6788 72.1427 93.5281 72.1827 93.4054C72.324 92.9868 72.4133 92.5521 72.5373 92.1281C72.8173 91.1641 73.0413 91.0628 74.0267 91.3494C74.2467 91.4134 74.5067 91.3414 74.7493 91.3321C74.6733 91.0974 74.608 90.8574 74.5133 90.6308C74.4733 90.5348 74.3653 90.4681 74.2947 90.3828C73.5613 89.5068 73.7507 88.8988 74.8587 88.5988C75.0493 88.5468 75.2627 88.5654 75.4467 88.5001C75.692 88.4134 75.9187 88.2774 76.3307 88.0761C75.8813 87.8614 75.64 87.7134 75.3787 87.6281C73.8987 87.1428 73.6707 86.7481 74.0307 85.2268C74.0813 85.0121 74.1987 84.8054 74.2147 84.5908C74.232 84.3588 74.1667 84.1188 74.1387 83.8828C73.8853 83.9654 73.5893 83.9908 73.3867 84.1414C72.9653 84.4574 72.6147 84.8654 72.1973 85.1868C71.7347 85.5414 71.3187 85.4508 71.064 84.9054C70.7747 84.2828 70.5227 83.6428 70.224 83.0254C70.14 82.8521 69.948 82.7308 69.8053 82.5854C69.6813 82.7534 69.5107 82.9028 69.444 83.0908C69.2573 83.6094 69.1347 84.1508 68.9493 84.6694C68.7507 85.2241 68.3387 85.3254 67.8227 85.1081C67.544 84.9908 67.2693 84.8668 66.9933 84.7454L66.9907 84.7428Z" fill="white"/>
<path d="M51.4658 88.4307C51.8992 87.7441 52.4138 86.8494 53.0072 86.0081C54.0845 84.4827 55.7058 83.8987 57.4565 83.6521C58.3085 83.5321 59.0325 83.3027 59.6005 82.6241C59.8698 82.3027 60.2712 82.0801 60.6138 82.5094C60.7472 82.6761 60.7938 83.1401 60.6805 83.2401C59.7298 84.0734 59.5418 85.2414 59.3352 86.3561C58.9938 88.1987 57.8192 89.4974 56.5605 90.6921C56.0072 91.2174 55.1165 91.4041 54.3565 91.6801C54.2392 91.7227 53.9552 91.4547 53.8312 91.2734C53.7472 91.1507 53.8112 90.9294 53.8032 90.7521C53.7645 89.7427 53.4965 89.4681 52.4712 89.4374C51.9592 89.4227 51.5392 89.3281 51.4658 88.4294V88.4307Z" fill="white"/>
<path d="M118.856 69.7666C119.566 69.7666 120.276 69.784 120.986 69.7613C121.559 69.7427 121.846 69.9266 121.828 70.56C121.795 71.6893 121.836 72.8213 121.822 73.952C121.802 75.5466 120.49 76.8826 118.922 76.9306C117.264 76.9813 115.834 75.796 115.738 74.1853C115.663 72.9253 115.719 71.6587 115.711 70.3947C115.708 69.8747 116.055 69.772 116.463 69.7653C117.262 69.7546 118.059 69.7626 118.858 69.7626V69.7666H118.856Z" fill="white"/>
<path d="M15.3587 72.244C15.3587 71.6667 15.3734 71.0894 15.3534 70.512C15.3361 70.024 15.5787 69.816 16.0321 69.816C17.6094 69.816 19.1854 69.8267 20.7627 69.8254C21.2187 69.8254 21.4174 70.0787 21.4187 70.488C21.4241 71.7094 21.4867 72.9374 21.3814 74.1507C21.2427 75.7574 19.7947 77.0067 18.3307 76.9214C16.6027 76.8214 15.3801 75.5294 15.3627 73.7774C15.3574 73.2667 15.3627 72.756 15.3627 72.2454H15.3587V72.244Z" fill="white"/>
<path d="M128.113 70.1388C127.532 70.8254 127.04 71.4428 126.511 72.0254C125.635 72.9921 125.621 73.0187 126.447 73.9961C127.073 74.7388 127.704 75.4788 128.443 76.3494C128.097 76.3774 127.896 76.4068 127.695 76.4068C126.163 76.4108 124.631 76.3921 123.099 76.4201C122.484 76.4308 122.256 76.1628 122.259 75.5881C122.267 73.8788 122.277 72.1694 122.263 70.4601C122.259 70.0068 122.465 69.7654 122.877 69.7681C124.429 69.7814 125.983 69.8214 127.535 69.8681C127.672 69.8721 127.807 69.9908 128.112 70.1374L128.113 70.1388Z" fill="white"/>
<path d="M27.8118 70.0307C27.1505 70.7907 26.4958 71.5587 25.8238 72.3094C25.2985 72.8974 25.2838 73.1347 25.7865 73.728C26.4972 74.5667 27.2038 75.4107 28.0478 76.4134C26.7238 76.4134 25.6038 76.42 24.4852 76.4107C23.8865 76.4054 23.2892 76.3827 22.6918 76.352C22.1825 76.3267 21.9292 76.032 21.9278 75.5334C21.9225 73.8467 21.9278 72.1587 21.9238 70.472C21.9238 70.0614 22.1372 69.832 22.5265 69.828C24.2545 69.8147 25.9838 69.8227 27.7118 69.8227C27.7465 69.892 27.7798 69.9614 27.8145 70.0307H27.8118Z" fill="white"/>
<path d="M75.4522 103.849C75.4522 104.647 75.4428 105.444 75.4548 106.241C75.4655 106.911 75.1508 107.316 74.5242 107.524C73.7188 107.792 73.2895 107.507 73.2548 106.668C73.1895 105.077 73.1175 103.488 73.0468 101.897C73.0068 101.004 74.2468 100.152 75.0388 100.577C75.2482 100.689 75.4122 101.063 75.4282 101.325C75.4775 102.164 75.4468 103.008 75.4468 103.849H75.4535H75.4522Z" fill="white"/>
<path d="M69.7336 104.893C69.7336 105.603 69.7336 106.313 69.7336 107.023C69.7336 107.519 69.4789 107.74 68.9896 107.751C68.0882 107.771 67.4722 107.177 67.4776 106.277C67.4882 104.62 67.4989 102.963 67.5082 101.305C67.5122 100.64 67.8536 100.383 68.4909 100.565C69.1176 100.745 69.6096 101.327 69.6229 101.976C69.6442 102.948 69.6282 103.921 69.6282 104.895C69.6629 104.895 69.6976 104.895 69.7336 104.895V104.893Z" fill="white"/>
<path d="M72.4876 104.519C72.4876 105.383 72.497 106.247 72.485 107.111C72.4756 107.791 72.233 108.007 71.5343 107.999C70.6676 107.988 70.3476 107.767 70.3556 107.092C70.3743 105.632 70.4343 104.172 70.4649 102.712C70.4716 102.404 70.4503 102.092 70.4076 101.787C70.3249 101.204 70.5369 100.859 71.1289 100.731C72.0409 100.533 72.4396 100.793 72.477 101.728C72.5156 102.657 72.485 103.589 72.4863 104.52L72.4876 104.519Z" fill="white"/>
<path d="M71.9471 39.6547C71.9471 40.5441 71.9392 41.4321 71.9498 42.3214C71.9565 42.8107 71.8925 43.1947 71.2698 43.2374C70.3592 43.3001 69.9698 43.1454 69.8698 42.4987C69.7952 42.0201 69.8205 41.5254 69.8258 41.0374C69.8432 39.7054 69.8498 38.3721 69.9151 37.0427C69.9298 36.7281 70.0858 36.2334 70.2978 36.1561C70.6991 36.0094 71.2032 36.0414 71.6338 36.1374C71.7872 36.1707 71.9312 36.6014 71.9418 36.8561C71.9778 37.7881 71.9565 38.7227 71.9565 39.6561H71.9471V39.6547Z" fill="white"/>
<path d="M74.9269 40.1933C74.9269 41.0347 74.9429 41.876 74.9216 42.716C74.9042 43.4427 74.7002 43.572 73.9976 43.344C73.3802 43.144 72.9122 42.7453 72.8802 42.0827C72.7962 40.336 72.7549 38.5867 72.7602 36.8373C72.7602 36.6373 73.1496 36.2947 73.3896 36.2627C74.4162 36.128 74.9829 36.7467 74.9416 37.7987C74.9096 38.596 74.9349 39.3947 74.9349 40.192C74.9309 40.192 74.9282 40.192 74.9242 40.192L74.9269 40.1933Z" fill="white"/>
<path d="M68.8956 43.2427C67.0969 43.5934 67.0116 43.5254 67.0129 41.8614C67.0129 40.4854 67.0089 39.1107 67.0156 37.7347C67.0196 37.0494 67.6889 36.3401 68.3542 36.3761C68.5409 36.3867 68.8702 36.6334 68.8729 36.7761C68.9062 38.9227 68.8956 41.0707 68.8956 43.2427Z" fill="white"/>
<path d="M77.8565 41.4641C77.8565 41.9294 77.8618 42.3961 77.8551 42.8614C77.8498 43.2681 77.8525 43.6841 77.3045 43.7681C76.5605 43.8827 75.9578 43.6281 75.7978 43.1107C75.7391 42.9214 75.6991 42.7201 75.6925 42.5227C75.6391 41.1281 75.5778 39.7321 75.5645 38.3374C75.5618 38.0627 75.7578 37.7867 75.8631 37.5107C76.1165 37.6121 76.4058 37.6641 76.6151 37.8227C77.4618 38.4641 77.9271 39.3041 77.8565 40.4001C77.8338 40.7534 77.8525 41.1094 77.8525 41.4641H77.8578H77.8565Z" fill="white"/>
<path d="M76.0748 103.403C76.0748 102.716 76.0601 102.029 76.0788 101.344C76.1041 100.385 77.1295 99.7307 77.9681 100.163C78.1588 100.261 78.3521 100.572 78.3535 100.785C78.3601 101.821 78.3308 102.86 78.2588 103.893C78.1961 104.793 77.6361 105.435 76.9801 105.987C76.8295 106.113 76.5201 106.255 76.4148 106.187C76.2455 106.079 76.1055 105.804 76.0935 105.592C76.0548 104.864 76.0788 104.132 76.0788 103.401H76.0748V103.403Z" fill="white"/>
<path d="M64.7476 102.513C64.7476 101.937 64.7582 101.363 64.7436 100.787C64.7329 100.368 64.9462 100.133 65.3329 100.151C66.2596 100.189 66.7649 100.436 66.7596 101.38C66.7516 102.813 66.8716 104.247 66.9062 105.681C66.9116 105.919 66.7982 106.337 66.6796 106.361C66.4396 106.408 66.1169 106.3 65.9009 106.151C65.0782 105.585 64.6569 104.804 64.7436 103.775C64.7782 103.357 64.7489 102.933 64.7489 102.513H64.7462H64.7476Z" fill="white"/>
<path d="M66.3883 40.6C66.3883 41.3534 66.4523 42.116 66.359 42.8573C66.3177 43.1827 66.0177 43.616 65.727 43.7347C65.359 43.8854 64.8763 43.796 64.4537 43.736C64.3563 43.7227 64.235 43.4067 64.2363 43.232C64.2483 42.036 64.243 40.8373 64.3377 39.648C64.407 38.7787 65.0643 38.2494 65.7523 37.8254C66.1897 37.556 66.359 37.8774 66.367 38.272C66.3817 39.048 66.371 39.824 66.371 40.6H66.3883Z" fill="white"/>
<path d="M71.3147 62.7654C71.1147 62.6067 70.7654 62.4414 70.7787 62.3147C70.8 62.1027 71.0187 61.8041 71.2187 61.7387C71.8467 61.5307 72.5014 61.3854 73.156 61.2814C73.3227 61.2547 73.5614 61.4401 73.6947 61.5921C73.7387 61.6414 73.5894 61.9881 73.4654 62.0361C72.7867 62.2987 72.088 62.5107 71.3147 62.7667V62.7654Z" fill="white"/>
<path d="M70.2989 86.4307C70.3336 86.7533 70.3603 87.008 70.4083 87.4587C70.6616 87.1653 70.8016 86.9707 70.9763 86.8147C71.0936 86.7093 71.2616 86.66 71.4056 86.5867C71.4589 86.7213 71.5576 86.856 71.5576 86.9907C71.5576 87.2307 71.4603 87.4733 71.4749 87.7107C71.4856 87.8747 71.5896 88.1307 71.7056 88.1653C71.8443 88.2067 72.0869 88.0987 72.1989 87.9773C72.3243 87.8413 72.3163 87.5893 72.4323 87.44C72.5496 87.2893 72.7483 87.2027 72.9109 87.088C73.0136 87.2827 73.2509 87.5427 73.1949 87.6587C72.9616 88.1347 72.7056 88.636 72.3283 88.9907C72.0163 89.284 71.7389 89.4853 71.6403 89.9613C71.5856 90.2293 71.1363 90.6013 70.8709 90.5973C70.4909 90.592 70.0643 90.3427 69.7656 90.076C69.6443 89.968 69.7096 89.468 69.8576 89.2747C70.1723 88.8653 70.0243 88.544 69.8469 88.172C69.4656 87.3693 69.5843 86.844 70.2976 86.432L70.2989 86.4307Z" fill="white"/>
</svg>
